<svg width="288" height="195" viewBox="0 0 288 195" fill="none" xmlns="http://www.w3.org/2000/svg">
<path d="M92.364 108V107.15L95.679 106.13C97.8323 105.393 98.909 103.948 98.909 101.795V60.655L92.024 61.59V60.485C95.3673 59.805 98.569 58.8417 101.629 57.595C104.746 56.3483 107.664 54.9033 110.384 53.26L111.489 54.025L111.149 66.18V101.795C111.149 104.005 112.226 105.422 114.379 106.045L117.864 107.15V108H92.364ZM123.271 108V107.15L125.056 106.47C126.189 106.073 126.926 105.535 127.266 104.855C127.606 104.175 127.776 103.297 127.776 102.22V57.765C127.776 56.6317 127.606 55.725 127.266 55.045C126.926 54.365 126.189 53.8267 125.056 53.43L123.271 52.75V51.9H144.436V52.75L142.566 53.515C141.602 53.855 140.951 54.365 140.611 55.045C140.271 55.725 140.101 56.66 140.101 57.85V102.305C140.101 103.438 140.271 104.317 140.611 104.94C141.007 105.563 141.744 106.073 142.821 106.47L144.436 107.15V108H123.271ZM154.636 108V107.15L155.741 106.81C156.874 106.47 157.469 105.903 157.526 105.11C157.582 104.317 157.242 103.41 156.506 102.39L140.186 79.185L161.691 57.255C162.484 56.4617 162.909 55.6967 162.966 54.96C163.079 54.2233 162.541 53.6567 161.351 53.26L159.906 52.75V51.9H172.316V52.75L170.106 53.43C168.859 53.8267 167.867 54.3083 167.131 54.875C166.394 55.4417 165.544 56.2067 164.581 57.17L149.366 72.725L169.341 101.88C170.191 103.127 170.984 104.147 171.721 104.94C172.514 105.733 173.619 106.357 175.036 106.81L176.226 107.15V108H154.636Z" fill="#CDA274"/>
<path d="M71.9144 171.38H80.0544L79.3944 169.62H72.5744L71.9144 171.38ZM75.9404 164.076L78.5804 170.28L78.7564 170.72L81.0004 176H83.0904L75.9404 159.83L68.7904 176H70.8804L73.1684 170.588L73.3444 170.192L75.9404 164.076ZM85.8658 170.94C85.8658 170.236 86.0125 169.613 86.3058 169.07C86.6138 168.513 87.0245 168.08 87.5378 167.772C88.0658 167.464 88.6598 167.31 89.3198 167.31C89.8625 167.31 90.3685 167.398 90.8378 167.574C91.3218 167.735 91.7398 167.955 92.0918 168.234C92.4438 168.513 92.6931 168.821 92.8398 169.158V166.958C92.4878 166.547 91.9818 166.232 91.3218 166.012C90.6765 165.777 90.0091 165.66 89.3198 165.66C88.3371 165.66 87.4498 165.887 86.6578 166.342C85.8658 166.797 85.2351 167.42 84.7658 168.212C84.3111 169.004 84.0838 169.913 84.0838 170.94C84.0838 171.952 84.3111 172.861 84.7658 173.668C85.2351 174.46 85.8658 175.083 86.6578 175.538C87.4498 175.993 88.3371 176.22 89.3198 176.22C90.0091 176.22 90.6765 176.11 91.3218 175.89C91.9818 175.655 92.4878 175.333 92.8398 174.922V172.722C92.6931 173.045 92.4438 173.353 92.0918 173.646C91.7398 173.925 91.3218 174.152 90.8378 174.328C90.3685 174.489 89.8625 174.57 89.3198 174.57C88.6598 174.57 88.0658 174.416 87.5378 174.108C87.0245 173.785 86.6138 173.353 86.3058 172.81C86.0125 172.267 85.8658 171.644 85.8658 170.94ZM94.2596 165.88V167.53H99.3196V165.88H94.2596ZM95.9096 162.36V176H97.6696V162.36H95.9096ZM101.305 161.7C101.305 162.023 101.422 162.309 101.657 162.558C101.906 162.793 102.192 162.91 102.515 162.91C102.852 162.91 103.138 162.793 103.373 162.558C103.607 162.309 103.725 162.023 103.725 161.7C103.725 161.363 103.607 161.077 103.373 160.842C103.138 160.607 102.852 160.49 102.515 160.49C102.192 160.49 101.906 160.607 101.657 160.842C101.422 161.077 101.305 161.363 101.305 161.7ZM101.635 165.88V176H103.395V165.88H101.635ZM105.59 165.88L110.43 176.77L115.27 165.88H113.29L110.43 173.03L107.57 165.88H105.59ZM120.743 176.22C121.828 176.22 122.767 176.007 123.559 175.582C124.366 175.142 125.033 174.497 125.561 173.646L124.131 172.744C123.764 173.36 123.317 173.822 122.789 174.13C122.261 174.423 121.652 174.57 120.963 174.57C120.274 174.57 119.687 174.423 119.203 174.13C118.719 173.837 118.352 173.411 118.103 172.854C117.854 172.297 117.729 171.622 117.729 170.83C117.744 170.053 117.876 169.4 118.125 168.872C118.389 168.329 118.756 167.919 119.225 167.64C119.709 167.347 120.288 167.2 120.963 167.2C121.535 167.2 122.034 167.325 122.459 167.574C122.884 167.823 123.214 168.168 123.449 168.608C123.698 169.048 123.823 169.569 123.823 170.17C123.823 170.273 123.801 170.405 123.757 170.566C123.713 170.713 123.669 170.823 123.625 170.896L124.329 169.884H117.069V171.38H125.715C125.715 171.351 125.715 171.285 125.715 171.182C125.73 171.065 125.737 170.955 125.737 170.852C125.737 169.781 125.546 168.857 125.165 168.08C124.784 167.303 124.234 166.709 123.515 166.298C122.811 165.873 121.96 165.66 120.963 165.66C119.966 165.66 119.086 165.88 118.323 166.32C117.575 166.76 116.988 167.376 116.563 168.168C116.152 168.96 115.947 169.884 115.947 170.94C115.947 171.981 116.145 172.898 116.541 173.69C116.952 174.482 117.516 175.105 118.235 175.56C118.968 176 119.804 176.22 120.743 176.22ZM135.295 160.6V176H137.165V160.6H135.295ZM136.329 162.36H139.475C140.472 162.36 141.279 162.602 141.895 163.086C142.525 163.555 142.841 164.267 142.841 165.22C142.841 166.159 142.525 166.87 141.895 167.354C141.279 167.838 140.472 168.08 139.475 168.08H136.329V169.84H139.475C140.472 169.84 141.359 169.657 142.137 169.29C142.929 168.909 143.552 168.373 144.007 167.684C144.476 166.98 144.711 166.159 144.711 165.22C144.711 164.267 144.476 163.445 144.007 162.756C143.552 162.067 142.929 161.539 142.137 161.172C141.359 160.791 140.472 160.6 139.475 160.6H136.329V162.36ZM148.788 165.88H147.028V176H148.788V165.88ZM151.846 167.816L152.814 166.364C152.55 166.085 152.257 165.902 151.934 165.814C151.626 165.711 151.289 165.66 150.922 165.66C150.453 165.66 149.991 165.843 149.536 166.21C149.081 166.577 148.707 167.075 148.414 167.706C148.135 168.322 147.996 169.033 147.996 169.84H148.788C148.788 169.356 148.832 168.923 148.92 168.542C149.023 168.161 149.199 167.86 149.448 167.64C149.697 167.42 150.042 167.31 150.482 167.31C150.775 167.31 151.017 167.354 151.208 167.442C151.399 167.515 151.611 167.64 151.846 167.816ZM153.587 170.94C153.587 171.952 153.814 172.861 154.269 173.668C154.738 174.46 155.369 175.083 156.161 175.538C156.953 175.993 157.84 176.22 158.823 176.22C159.82 176.22 160.707 175.993 161.485 175.538C162.277 175.083 162.9 174.46 163.355 173.668C163.824 172.861 164.059 171.952 164.059 170.94C164.059 169.913 163.824 169.004 163.355 168.212C162.9 167.42 162.277 166.797 161.485 166.342C160.707 165.887 159.82 165.66 158.823 165.66C157.84 165.66 156.953 165.887 156.161 166.342C155.369 166.797 154.738 167.42 154.269 168.212C153.814 169.004 153.587 169.913 153.587 170.94ZM155.369 170.94C155.369 170.236 155.515 169.613 155.809 169.07C156.117 168.513 156.527 168.08 157.041 167.772C157.569 167.464 158.163 167.31 158.823 167.31C159.483 167.31 160.069 167.464 160.583 167.772C161.111 168.08 161.521 168.513 161.815 169.07C162.123 169.613 162.277 170.236 162.277 170.94C162.277 171.644 162.123 172.267 161.815 172.81C161.521 173.353 161.111 173.785 160.583 174.108C160.069 174.416 159.483 174.57 158.823 174.57C158.163 174.57 157.569 174.416 157.041 174.108C156.527 173.785 156.117 173.353 155.809 172.81C155.515 172.267 155.369 171.644 155.369 170.94ZM166.41 161.7C166.41 162.023 166.528 162.301 166.762 162.536C166.997 162.771 167.276 162.888 167.598 162.888C167.936 162.888 168.214 162.771 168.434 162.536C168.669 162.301 168.786 162.023 168.786 161.7C168.786 161.363 168.669 161.084 168.434 160.864C168.214 160.629 167.936 160.512 167.598 160.512C167.276 160.512 166.997 160.629 166.762 160.864C166.528 161.084 166.41 161.363 166.41 161.7ZM164.672 178.508L163.704 179.96C163.851 180.151 164.02 180.312 164.21 180.444C164.401 180.576 164.614 180.671 164.848 180.73C165.083 180.803 165.347 180.84 165.64 180.84C166.256 180.84 166.784 180.701 167.224 180.422C167.664 180.143 167.994 179.74 168.214 179.212C168.449 178.684 168.566 178.053 168.566 177.32V165.88H166.806V177.1C166.806 177.569 166.77 177.951 166.696 178.244C166.623 178.537 166.506 178.75 166.344 178.882C166.198 179.014 166 179.08 165.75 179.08C165.516 179.08 165.303 179.029 165.112 178.926C164.936 178.823 164.79 178.684 164.672 178.508ZM176.332 176.22C177.418 176.22 178.356 176.007 179.148 175.582C179.955 175.142 180.622 174.497 181.15 173.646L179.72 172.744C179.354 173.36 178.906 173.822 178.378 174.13C177.85 174.423 177.242 174.57 176.552 174.57C175.863 174.57 175.276 174.423 174.792 174.13C174.308 173.837 173.942 173.411 173.692 172.854C173.443 172.297 173.318 171.622 173.318 170.83C173.333 170.053 173.465 169.4 173.714 168.872C173.978 168.329 174.345 167.919 174.814 167.64C175.298 167.347 175.878 167.2 176.552 167.2C177.124 167.2 177.623 167.325 178.048 167.574C178.474 167.823 178.804 168.168 179.038 168.608C179.288 169.048 179.412 169.569 179.412 170.17C179.412 170.273 179.39 170.405 179.346 170.566C179.302 170.713 179.258 170.823 179.214 170.896L179.918 169.884H172.658V171.38H181.304C181.304 171.351 181.304 171.285 181.304 171.182C181.319 171.065 181.326 170.955 181.326 170.852C181.326 169.781 181.136 168.857 180.754 168.08C180.373 167.303 179.823 166.709 179.104 166.298C178.4 165.873 177.55 165.66 176.552 165.66C175.555 165.66 174.675 165.88 173.912 166.32C173.164 166.76 172.578 167.376 172.152 168.168C171.742 168.96 171.536 169.884 171.536 170.94C171.536 171.981 171.734 172.898 172.13 173.69C172.541 174.482 173.106 175.105 173.824 175.56C174.558 176 175.394 176.22 176.332 176.22ZM184.751 170.94C184.751 170.236 184.897 169.613 185.191 169.07C185.499 168.513 185.909 168.08 186.423 167.772C186.951 167.464 187.545 167.31 188.205 167.31C188.747 167.31 189.253 167.398 189.723 167.574C190.207 167.735 190.625 167.955 190.977 168.234C191.329 168.513 191.578 168.821 191.725 169.158V166.958C191.373 166.547 190.867 166.232 190.207 166.012C189.561 165.777 188.894 165.66 188.205 165.66C187.222 165.66 186.335 165.887 185.543 166.342C184.751 166.797 184.12 167.42 183.651 168.212C183.196 169.004 182.969 169.913 182.969 170.94C182.969 171.952 183.196 172.861 183.651 173.668C184.12 174.46 184.751 175.083 185.543 175.538C186.335 175.993 187.222 176.22 188.205 176.22C188.894 176.22 189.561 176.11 190.207 175.89C190.867 175.655 191.373 175.333 191.725 174.922V172.722C191.578 173.045 191.329 173.353 190.977 173.646C190.625 173.925 190.207 174.152 189.723 174.328C189.253 174.489 188.747 174.57 188.205 174.57C187.545 174.57 186.951 174.416 186.423 174.108C185.909 173.785 185.499 173.353 185.191 172.81C184.897 172.267 184.751 171.644 184.751 170.94ZM193.144 165.88V167.53H198.204V165.88H193.144ZM194.794 162.36V176H196.554V162.36H194.794Z" fill="#4D5053"/>
</svg>
