<svg width="288" height="195" viewBox="0 0 288 195" fill="none" xmlns="http://www.w3.org/2000/svg">
<path d="M106.369 108V94.23H84.0137V89.385L108.919 53.43H117.249V87.94H125.324V94.23H117.249V108H106.369ZM87.7537 87.94H106.369V61.165L87.7537 87.94ZM131.281 108V107.15L133.066 106.47C134.199 106.073 134.936 105.535 135.276 104.855C135.616 104.175 135.786 103.297 135.786 102.22V57.765C135.786 56.6317 135.616 55.725 135.276 55.045C134.936 54.365 134.199 53.8267 133.066 53.43L131.281 52.75V51.9H152.446V52.75L150.576 53.515C149.613 53.855 148.961 54.365 148.621 55.045C148.281 55.725 148.111 56.66 148.111 57.85V102.305C148.111 103.438 148.281 104.317 148.621 104.94C149.018 105.563 149.754 106.073 150.831 106.47L152.446 107.15V108H131.281ZM162.646 108V107.15L163.751 106.81C164.884 106.47 165.479 105.903 165.536 105.11C165.593 104.317 165.253 103.41 164.516 102.39L148.196 79.185L169.701 57.255C170.494 56.4617 170.919 55.6967 170.976 54.96C171.089 54.2233 170.551 53.6567 169.361 53.26L167.916 52.75V51.9H180.326V52.75L178.116 53.43C176.869 53.8267 175.878 54.3083 175.141 54.875C174.404 55.4417 173.554 56.2067 172.591 57.17L157.376 72.725L177.351 101.88C178.201 103.127 178.994 104.147 179.731 104.94C180.524 105.733 181.629 106.357 183.046 106.81L184.236 107.15V108H162.646Z" fill="#CDA274"/>
<path d="M52.7218 168.52H63.2818V166.76H52.7218V168.52ZM62.0278 160.6V176H63.8978V160.6H62.0278ZM51.6878 160.6V176H53.5578V160.6H51.6878ZM68.3163 172.876C68.3163 172.509 68.4043 172.194 68.5803 171.93C68.7563 171.666 69.0203 171.461 69.3723 171.314C69.739 171.167 70.2083 171.094 70.7803 171.094C71.3963 171.094 71.9757 171.175 72.5183 171.336C73.061 171.483 73.589 171.732 74.1023 172.084V171.05C73.9997 170.918 73.8017 170.749 73.5083 170.544C73.215 170.324 72.819 170.133 72.3203 169.972C71.8363 169.796 71.2277 169.708 70.4943 169.708C69.2477 169.708 68.2723 170.009 67.5683 170.61C66.879 171.197 66.5343 171.981 66.5343 172.964C66.5343 173.653 66.6957 174.24 67.0183 174.724C67.341 175.208 67.7663 175.582 68.2943 175.846C68.837 176.095 69.4163 176.22 70.0323 176.22C70.5897 176.22 71.147 176.117 71.7043 175.912C72.2763 175.707 72.753 175.391 73.1343 174.966C73.5303 174.541 73.7283 174.005 73.7283 173.36L73.3763 172.04C73.3763 172.568 73.2443 173.037 72.9803 173.448C72.731 173.844 72.3863 174.152 71.9463 174.372C71.521 174.592 71.037 174.702 70.4943 174.702C70.069 174.702 69.6877 174.636 69.3503 174.504C69.0277 174.357 68.771 174.145 68.5803 173.866C68.4043 173.587 68.3163 173.257 68.3163 172.876ZM68.0523 168.212C68.2137 168.095 68.4337 167.955 68.7123 167.794C68.991 167.633 69.3283 167.493 69.7243 167.376C70.135 167.259 70.5897 167.2 71.0883 167.2C71.3963 167.2 71.6897 167.229 71.9683 167.288C72.247 167.347 72.489 167.442 72.6943 167.574C72.9143 167.706 73.083 167.889 73.2003 168.124C73.3177 168.344 73.3763 168.63 73.3763 168.982V176H75.1363V168.74C75.1363 168.08 74.9677 167.523 74.6303 167.068C74.3077 166.613 73.8457 166.269 73.2443 166.034C72.6577 165.785 71.9683 165.66 71.1763 165.66C70.2377 165.66 69.431 165.799 68.7563 166.078C68.0963 166.357 67.5757 166.635 67.1943 166.914L68.0523 168.212ZM79.9861 180.84V165.88H78.2261V180.84H79.9861ZM88.4561 170.94C88.4561 169.84 88.2288 168.901 87.7741 168.124C87.3195 167.332 86.7108 166.723 85.9481 166.298C85.2001 165.873 84.3641 165.66 83.4401 165.66C82.6041 165.66 81.8635 165.873 81.2181 166.298C80.5875 166.723 80.0888 167.332 79.7221 168.124C79.3701 168.901 79.1941 169.84 79.1941 170.94C79.1941 172.025 79.3701 172.964 79.7221 173.756C80.0888 174.548 80.5875 175.157 81.2181 175.582C81.8635 176.007 82.6041 176.22 83.4401 176.22C84.3641 176.22 85.2001 176.007 85.9481 175.582C86.7108 175.157 87.3195 174.548 87.7741 173.756C88.2288 172.964 88.4561 172.025 88.4561 170.94ZM86.6741 170.94C86.6741 171.717 86.5128 172.377 86.1901 172.92C85.8821 173.463 85.4641 173.873 84.9361 174.152C84.4228 174.431 83.8508 174.57 83.2201 174.57C82.7068 174.57 82.2008 174.431 81.7021 174.152C81.2035 173.873 80.7928 173.463 80.4701 172.92C80.1475 172.377 79.9861 171.717 79.9861 170.94C79.9861 170.163 80.1475 169.503 80.4701 168.96C80.7928 168.417 81.2035 168.007 81.7021 167.728C82.2008 167.449 82.7068 167.31 83.2201 167.31C83.8508 167.31 84.4228 167.449 84.9361 167.728C85.4641 168.007 85.8821 168.417 86.1901 168.96C86.5128 169.503 86.6741 170.163 86.6741 170.94ZM92.753 180.84V165.88H90.993V180.84H92.753ZM101.223 170.94C101.223 169.84 100.996 168.901 100.541 168.124C100.086 167.332 99.4777 166.723 98.715 166.298C97.967 165.873 97.131 165.66 96.207 165.66C95.371 165.66 94.6303 165.873 93.985 166.298C93.3543 166.723 92.8557 167.332 92.489 168.124C92.137 168.901 91.961 169.84 91.961 170.94C91.961 172.025 92.137 172.964 92.489 173.756C92.8557 174.548 93.3543 175.157 93.985 175.582C94.6303 176.007 95.371 176.22 96.207 176.22C97.131 176.22 97.967 176.007 98.715 175.582C99.4777 175.157 100.086 174.548 100.541 173.756C100.996 172.964 101.223 172.025 101.223 170.94ZM99.441 170.94C99.441 171.717 99.2797 172.377 98.957 172.92C98.649 173.463 98.231 173.873 97.703 174.152C97.1897 174.431 96.6177 174.57 95.987 174.57C95.4737 174.57 94.9677 174.431 94.469 174.152C93.9703 173.873 93.5597 173.463 93.237 172.92C92.9143 172.377 92.753 171.717 92.753 170.94C92.753 170.163 92.9143 169.503 93.237 168.96C93.5597 168.417 93.9703 168.007 94.469 167.728C94.9677 167.449 95.4737 167.31 95.987 167.31C96.6177 167.31 97.1897 167.449 97.703 167.728C98.231 168.007 98.649 168.417 98.957 168.96C99.2797 169.503 99.441 170.163 99.441 170.94ZM111.578 165.88H109.598L106.474 173.712L107.2 173.8L103.988 165.88H101.898L105.77 174.57L102.998 180.84H104.978L111.578 165.88ZM121.483 168.3C121.483 167.097 121.747 166.049 122.275 165.154C122.817 164.245 123.521 163.533 124.387 163.02C125.252 162.507 126.191 162.25 127.203 162.25C127.936 162.25 128.603 162.345 129.205 162.536C129.821 162.727 130.378 162.998 130.877 163.35C131.375 163.687 131.801 164.083 132.153 164.538V162.074C131.507 161.502 130.803 161.077 130.041 160.798C129.278 160.519 128.332 160.38 127.203 160.38C126.132 160.38 125.127 160.578 124.189 160.974C123.265 161.355 122.451 161.905 121.747 162.624C121.043 163.328 120.493 164.164 120.097 165.132C119.701 166.1 119.503 167.156 119.503 168.3C119.503 169.444 119.701 170.5 120.097 171.468C120.493 172.436 121.043 173.279 121.747 173.998C122.451 174.702 123.265 175.252 124.189 175.648C125.127 176.029 126.132 176.22 127.203 176.22C128.332 176.22 129.278 176.081 130.041 175.802C130.803 175.523 131.507 175.098 132.153 174.526V172.062C131.801 172.517 131.375 172.92 130.877 173.272C130.378 173.609 129.821 173.873 129.205 174.064C128.603 174.255 127.936 174.35 127.203 174.35C126.191 174.35 125.252 174.093 124.387 173.58C123.521 173.067 122.817 172.355 122.275 171.446C121.747 170.537 121.483 169.488 121.483 168.3ZM137.313 172.04V165.88H135.553V172.26C135.553 173.463 135.869 174.423 136.499 175.142C137.13 175.861 137.973 176.22 139.029 176.22C139.704 176.22 140.291 176.073 140.789 175.78C141.288 175.472 141.706 175.017 142.043 174.416V176H143.803V165.88H142.043V172.04C142.043 172.539 141.933 172.979 141.713 173.36C141.508 173.741 141.207 174.042 140.811 174.262C140.43 174.467 139.983 174.57 139.469 174.57C138.765 174.57 138.23 174.35 137.863 173.91C137.497 173.47 137.313 172.847 137.313 172.04ZM147.75 172.898L146.364 173.756C146.555 174.152 146.833 174.541 147.2 174.922C147.581 175.303 148.043 175.619 148.586 175.868C149.129 176.103 149.737 176.22 150.412 176.22C151.453 176.22 152.289 175.927 152.92 175.34C153.565 174.753 153.888 174.02 153.888 173.14C153.888 172.539 153.741 172.047 153.448 171.666C153.169 171.285 152.788 170.962 152.304 170.698C151.82 170.419 151.285 170.163 150.698 169.928C150.346 169.781 150.009 169.627 149.686 169.466C149.363 169.305 149.099 169.121 148.894 168.916C148.689 168.711 148.586 168.476 148.586 168.212C148.586 167.875 148.718 167.625 148.982 167.464C149.246 167.303 149.561 167.222 149.928 167.222C150.456 167.222 150.925 167.347 151.336 167.596C151.761 167.845 152.113 168.161 152.392 168.542L153.8 167.64C153.595 167.259 153.309 166.921 152.942 166.628C152.575 166.335 152.15 166.1 151.666 165.924C151.197 165.748 150.691 165.66 150.148 165.66C149.605 165.66 149.077 165.755 148.564 165.946C148.065 166.137 147.655 166.43 147.332 166.826C147.024 167.222 146.87 167.721 146.87 168.322C146.87 168.909 147.017 169.4 147.31 169.796C147.618 170.177 147.992 170.493 148.432 170.742C148.887 170.977 149.334 171.182 149.774 171.358C150.17 171.505 150.544 171.666 150.896 171.842C151.248 172.003 151.534 172.209 151.754 172.458C151.989 172.693 152.106 172.986 152.106 173.338C152.106 173.734 151.959 174.049 151.666 174.284C151.387 174.504 150.999 174.614 150.5 174.614C150.089 174.614 149.708 174.541 149.356 174.394C149.019 174.233 148.718 174.02 148.454 173.756C148.19 173.492 147.955 173.206 147.75 172.898ZM154.885 165.88V167.53H159.945V165.88H154.885ZM156.535 162.36V176H158.295V162.36H156.535ZM161.05 170.94C161.05 171.952 161.277 172.861 161.732 173.668C162.201 174.46 162.832 175.083 163.624 175.538C164.416 175.993 165.303 176.22 166.286 176.22C167.283 176.22 168.171 175.993 168.948 175.538C169.74 175.083 170.363 174.46 170.818 173.668C171.287 172.861 171.522 171.952 171.522 170.94C171.522 169.913 171.287 169.004 170.818 168.212C170.363 167.42 169.74 166.797 168.948 166.342C168.171 165.887 167.283 165.66 166.286 165.66C165.303 165.66 164.416 165.887 163.624 166.342C162.832 166.797 162.201 167.42 161.732 168.212C161.277 169.004 161.05 169.913 161.05 170.94ZM162.832 170.94C162.832 170.236 162.979 169.613 163.272 169.07C163.58 168.513 163.991 168.08 164.504 167.772C165.032 167.464 165.626 167.31 166.286 167.31C166.946 167.31 167.533 167.464 168.046 167.772C168.574 168.08 168.985 168.513 169.278 169.07C169.586 169.613 169.74 170.236 169.74 170.94C169.74 171.644 169.586 172.267 169.278 172.81C168.985 173.353 168.574 173.785 168.046 174.108C167.533 174.416 166.946 174.57 166.286 174.57C165.626 174.57 165.032 174.416 164.504 174.108C163.991 173.785 163.58 173.353 163.272 172.81C162.979 172.267 162.832 171.644 162.832 170.94ZM188.02 169.62C188.02 168.784 187.888 168.073 187.624 167.486C187.375 166.885 187.008 166.43 186.524 166.122C186.04 165.814 185.453 165.66 184.764 165.66C184.089 165.66 183.488 165.821 182.96 166.144C182.432 166.452 181.992 166.921 181.64 167.552C181.405 166.951 181.031 166.489 180.518 166.166C180.019 165.829 179.418 165.66 178.714 165.66C178.083 165.66 177.533 165.799 177.064 166.078C176.609 166.357 176.228 166.782 175.92 167.354V165.88H174.16V176H175.92V169.84C175.92 169.312 176.015 168.857 176.206 168.476C176.397 168.095 176.668 167.809 177.02 167.618C177.372 167.413 177.79 167.31 178.274 167.31C178.934 167.31 179.418 167.515 179.726 167.926C180.049 168.337 180.21 168.975 180.21 169.84V176H181.97V169.84C181.97 169.312 182.065 168.857 182.256 168.476C182.447 168.095 182.718 167.809 183.07 167.618C183.422 167.413 183.84 167.31 184.324 167.31C184.984 167.31 185.468 167.515 185.776 167.926C186.099 168.337 186.26 168.975 186.26 169.84V176H188.02V169.62ZM195.462 176.22C196.547 176.22 197.486 176.007 198.278 175.582C199.085 175.142 199.752 174.497 200.28 173.646L198.85 172.744C198.483 173.36 198.036 173.822 197.508 174.13C196.98 174.423 196.371 174.57 195.682 174.57C194.993 174.57 194.406 174.423 193.922 174.13C193.438 173.837 193.071 173.411 192.822 172.854C192.573 172.297 192.448 171.622 192.448 170.83C192.463 170.053 192.595 169.4 192.844 168.872C193.108 168.329 193.475 167.919 193.944 167.64C194.428 167.347 195.007 167.2 195.682 167.2C196.254 167.2 196.753 167.325 197.178 167.574C197.603 167.823 197.933 168.168 198.168 168.608C198.417 169.048 198.542 169.569 198.542 170.17C198.542 170.273 198.52 170.405 198.476 170.566C198.432 170.713 198.388 170.823 198.344 170.896L199.048 169.884H191.788V171.38H200.434C200.434 171.351 200.434 171.285 200.434 171.182C200.449 171.065 200.456 170.955 200.456 170.852C200.456 169.781 200.265 168.857 199.884 168.08C199.503 167.303 198.953 166.709 198.234 166.298C197.53 165.873 196.679 165.66 195.682 165.66C194.685 165.66 193.805 165.88 193.042 166.32C192.294 166.76 191.707 167.376 191.282 168.168C190.871 168.96 190.666 169.884 190.666 170.94C190.666 171.981 190.864 172.898 191.26 173.69C191.671 174.482 192.235 175.105 192.954 175.56C193.687 176 194.523 176.22 195.462 176.22ZM204.848 165.88H203.088V176H204.848V165.88ZM207.906 167.816L208.874 166.364C208.61 166.085 208.317 165.902 207.994 165.814C207.686 165.711 207.349 165.66 206.982 165.66C206.513 165.66 206.051 165.843 205.596 166.21C205.142 166.577 204.768 167.075 204.474 167.706C204.196 168.322 204.056 169.033 204.056 169.84H204.848C204.848 169.356 204.892 168.923 204.98 168.542C205.083 168.161 205.259 167.86 205.508 167.64C205.758 167.42 206.102 167.31 206.542 167.31C206.836 167.31 207.078 167.354 207.268 167.442C207.459 167.515 207.672 167.64 207.906 167.816ZM211.267 172.898L209.881 173.756C210.072 174.152 210.351 174.541 210.717 174.922C211.099 175.303 211.561 175.619 212.103 175.868C212.646 176.103 213.255 176.22 213.929 176.22C214.971 176.22 215.807 175.927 216.437 175.34C217.083 174.753 217.405 174.02 217.405 173.14C217.405 172.539 217.259 172.047 216.965 171.666C216.687 171.285 216.305 170.962 215.821 170.698C215.337 170.419 214.802 170.163 214.215 169.928C213.863 169.781 213.526 169.627 213.203 169.466C212.881 169.305 212.617 169.121 212.411 168.916C212.206 168.711 212.103 168.476 212.103 168.212C212.103 167.875 212.235 167.625 212.499 167.464C212.763 167.303 213.079 167.222 213.445 167.222C213.973 167.222 214.443 167.347 214.853 167.596C215.279 167.845 215.631 168.161 215.909 168.542L217.317 167.64C217.112 167.259 216.826 166.921 216.459 166.628C216.093 166.335 215.667 166.1 215.183 165.924C214.714 165.748 214.208 165.66 213.665 165.66C213.123 165.66 212.595 165.755 212.081 165.946C211.583 166.137 211.172 166.43 210.849 166.826C210.541 167.222 210.387 167.721 210.387 168.322C210.387 168.909 210.534 169.4 210.827 169.796C211.135 170.177 211.509 170.493 211.949 170.742C212.404 170.977 212.851 171.182 213.291 171.358C213.687 171.505 214.061 171.666 214.413 171.842C214.765 172.003 215.051 172.209 215.271 172.458C215.506 172.693 215.623 172.986 215.623 173.338C215.623 173.734 215.477 174.049 215.183 174.284C214.905 174.504 214.516 174.614 214.017 174.614C213.607 174.614 213.225 174.541 212.873 174.394C212.536 174.233 212.235 174.02 211.971 173.756C211.707 173.492 211.473 173.206 211.267 172.898Z" fill="#4D5053"/>
</svg>
