<svg width="288" height="195" viewBox="0 0 288 195" fill="none" xmlns="http://www.w3.org/2000/svg">
<path d="M97.052 108V107.15L100.367 106.13C102.52 105.393 103.597 103.948 103.597 101.795V60.655L96.712 61.59V60.485C100.055 59.805 103.257 58.8417 106.317 57.595C109.434 56.3483 112.352 54.9033 115.072 53.26L116.177 54.025L115.837 66.18V101.795C115.837 104.005 116.914 105.422 119.067 106.045L122.552 107.15V108H97.052ZM131.954 68.39L132.549 56.32C134.249 55.3567 136.345 54.535 138.839 53.855C141.389 53.175 144.25 52.835 147.424 52.835C151.957 52.835 155.612 53.4867 158.389 54.79C161.165 56.0367 163.205 57.765 164.509 59.975C165.812 62.185 166.464 64.6783 166.464 67.455C166.464 71.365 164.565 75.19 160.769 78.93C156.972 82.6133 151.787 86.6933 145.214 91.17C143.967 92.0767 142.494 93.1817 140.794 94.485C139.094 95.7883 137.507 97.0633 136.034 98.31H167.909V108H130.509V100.86C132.549 98.8767 134.532 96.9217 136.459 94.995C138.442 93.0117 140.312 91.1417 142.069 89.385C146.149 85.1917 149.18 81.48 151.164 78.25C153.204 74.9633 154.224 71.45 154.224 67.71C154.224 63.8 153.515 60.655 152.099 58.275C150.682 55.8383 148.557 54.62 145.724 54.62C143.967 54.62 142.324 55.0733 140.794 55.98C139.32 56.83 138.017 58.3317 136.884 60.485L132.804 68.39H131.954Z" fill="#CDA274"/>
<path d="M47.2753 160.6L43.2933 167.728L39.3333 160.6H37.2433L42.3693 169.378V176H44.2393V169.356L49.3653 160.6H47.2753ZM53.0599 176.22C54.1452 176.22 55.0839 176.007 55.8759 175.582C56.6826 175.142 57.3499 174.497 57.8779 173.646L56.4479 172.744C56.0812 173.36 55.6339 173.822 55.1059 174.13C54.5779 174.423 53.9692 174.57 53.2799 174.57C52.5906 174.57 52.0039 174.423 51.5199 174.13C51.0359 173.837 50.6692 173.411 50.4199 172.854C50.1706 172.297 50.0459 171.622 50.0459 170.83C50.0606 170.053 50.1926 169.4 50.4419 168.872C50.7059 168.329 51.0726 167.919 51.5419 167.64C52.0259 167.347 52.6052 167.2 53.2799 167.2C53.8519 167.2 54.3506 167.325 54.7759 167.574C55.2012 167.823 55.5312 168.168 55.7659 168.608C56.0152 169.048 56.1399 169.569 56.1399 170.17C56.1399 170.273 56.1179 170.405 56.0739 170.566C56.0299 170.713 55.9859 170.823 55.9419 170.896L56.6459 169.884H49.3859V171.38H58.0319C58.0319 171.351 58.0319 171.285 58.0319 171.182C58.0466 171.065 58.0539 170.955 58.0539 170.852C58.0539 169.781 57.8632 168.857 57.4819 168.08C57.1006 167.303 56.5506 166.709 55.8319 166.298C55.1279 165.873 54.2772 165.66 53.2799 165.66C52.2826 165.66 51.4026 165.88 50.6399 166.32C49.8919 166.76 49.3052 167.376 48.8799 168.168C48.4692 168.96 48.2639 169.884 48.2639 170.94C48.2639 171.981 48.4619 172.898 48.8579 173.69C49.2686 174.482 49.8332 175.105 50.5519 175.56C51.2852 176 52.1212 176.22 53.0599 176.22ZM61.4782 172.876C61.4782 172.509 61.5662 172.194 61.7422 171.93C61.9182 171.666 62.1822 171.461 62.5342 171.314C62.9008 171.167 63.3702 171.094 63.9422 171.094C64.5582 171.094 65.1375 171.175 65.6802 171.336C66.2228 171.483 66.7508 171.732 67.2642 172.084V171.05C67.1615 170.918 66.9635 170.749 66.6702 170.544C66.3768 170.324 65.9808 170.133 65.4822 169.972C64.9982 169.796 64.3895 169.708 63.6562 169.708C62.4095 169.708 61.4342 170.009 60.7302 170.61C60.0408 171.197 59.6962 171.981 59.6962 172.964C59.6962 173.653 59.8575 174.24 60.1802 174.724C60.5028 175.208 60.9282 175.582 61.4562 175.846C61.9988 176.095 62.5782 176.22 63.1942 176.22C63.7515 176.22 64.3088 176.117 64.8662 175.912C65.4382 175.707 65.9148 175.391 66.2962 174.966C66.6922 174.541 66.8902 174.005 66.8902 173.36L66.5382 172.04C66.5382 172.568 66.4062 173.037 66.1422 173.448C65.8928 173.844 65.5482 174.152 65.1082 174.372C64.6828 174.592 64.1988 174.702 63.6562 174.702C63.2308 174.702 62.8495 174.636 62.5122 174.504C62.1895 174.357 61.9328 174.145 61.7422 173.866C61.5662 173.587 61.4782 173.257 61.4782 172.876ZM61.2142 168.212C61.3755 168.095 61.5955 167.955 61.8742 167.794C62.1528 167.633 62.4902 167.493 62.8862 167.376C63.2968 167.259 63.7515 167.2 64.2502 167.2C64.5582 167.2 64.8515 167.229 65.1302 167.288C65.4088 167.347 65.6508 167.442 65.8562 167.574C66.0762 167.706 66.2448 167.889 66.3622 168.124C66.4795 168.344 66.5382 168.63 66.5382 168.982V176H68.2982V168.74C68.2982 168.08 68.1295 167.523 67.7922 167.068C67.4695 166.613 67.0075 166.269 66.4062 166.034C65.8195 165.785 65.1302 165.66 64.3382 165.66C63.3995 165.66 62.5928 165.799 61.9182 166.078C61.2582 166.357 60.7375 166.635 60.3562 166.914L61.2142 168.212ZM73.258 165.88H71.498V176H73.258V165.88ZM76.316 167.816L77.284 166.364C77.02 166.085 76.7266 165.902 76.404 165.814C76.096 165.711 75.7586 165.66 75.392 165.66C74.9226 165.66 74.4606 165.843 74.006 166.21C73.5513 166.577 73.1773 167.075 72.884 167.706C72.6053 168.322 72.466 169.033 72.466 169.84H73.258C73.258 169.356 73.302 168.923 73.39 168.542C73.4926 168.161 73.6686 167.86 73.918 167.64C74.1673 167.42 74.512 167.31 74.952 167.31C75.2453 167.31 75.4873 167.354 75.678 167.442C75.8686 167.515 76.0813 167.64 76.316 167.816ZM79.677 172.898L78.291 173.756C78.4816 174.152 78.7603 174.541 79.127 174.922C79.5083 175.303 79.9703 175.619 80.513 175.868C81.0556 176.103 81.6643 176.22 82.339 176.22C83.3803 176.22 84.2163 175.927 84.847 175.34C85.4923 174.753 85.815 174.02 85.815 173.14C85.815 172.539 85.6683 172.047 85.375 171.666C85.0963 171.285 84.715 170.962 84.231 170.698C83.747 170.419 83.2116 170.163 82.625 169.928C82.273 169.781 81.9356 169.627 81.613 169.466C81.2903 169.305 81.0263 169.121 80.821 168.916C80.6156 168.711 80.513 168.476 80.513 168.212C80.513 167.875 80.645 167.625 80.909 167.464C81.173 167.303 81.4883 167.222 81.855 167.222C82.383 167.222 82.8523 167.347 83.263 167.596C83.6883 167.845 84.0403 168.161 84.319 168.542L85.727 167.64C85.5216 167.259 85.2356 166.921 84.869 166.628C84.5023 166.335 84.077 166.1 83.593 165.924C83.1236 165.748 82.6176 165.66 82.075 165.66C81.5323 165.66 81.0043 165.755 80.491 165.946C79.9923 166.137 79.5816 166.43 79.259 166.826C78.951 167.222 78.797 167.721 78.797 168.322C78.797 168.909 78.9436 169.4 79.237 169.796C79.545 170.177 79.919 170.493 80.359 170.742C80.8136 170.977 81.261 171.182 81.701 171.358C82.097 171.505 82.471 171.666 82.823 171.842C83.175 172.003 83.461 172.209 83.681 172.458C83.9156 172.693 84.033 172.986 84.033 173.338C84.033 173.734 83.8863 174.049 83.593 174.284C83.3143 174.504 82.9256 174.614 82.427 174.614C82.0163 174.614 81.635 174.541 81.283 174.394C80.9456 174.233 80.645 174.02 80.381 173.756C80.117 173.492 79.8823 173.206 79.677 172.898ZM96.3777 168.3C96.3777 167.141 96.6271 166.107 97.1257 165.198C97.6391 164.289 98.3357 163.57 99.2157 163.042C100.096 162.514 101.093 162.25 102.208 162.25C103.337 162.25 104.334 162.514 105.2 163.042C106.08 163.57 106.769 164.289 107.268 165.198C107.781 166.107 108.038 167.141 108.038 168.3C108.038 169.459 107.781 170.493 107.268 171.402C106.769 172.311 106.08 173.03 105.2 173.558C104.334 174.086 103.337 174.35 102.208 174.35C101.093 174.35 100.096 174.086 99.2157 173.558C98.3357 173.03 97.6391 172.311 97.1257 171.402C96.6271 170.493 96.3777 169.459 96.3777 168.3ZM94.3977 168.3C94.3977 169.415 94.5884 170.456 94.9697 171.424C95.3657 172.392 95.9157 173.235 96.6197 173.954C97.3237 174.658 98.1524 175.215 99.1057 175.626C100.059 176.022 101.093 176.22 102.208 176.22C103.337 176.22 104.371 176.022 105.31 175.626C106.263 175.215 107.092 174.658 107.796 173.954C108.5 173.235 109.042 172.392 109.424 171.424C109.82 170.456 110.018 169.415 110.018 168.3C110.018 167.171 109.82 166.129 109.424 165.176C109.042 164.208 108.5 163.372 107.796 162.668C107.092 161.949 106.263 161.392 105.31 160.996C104.371 160.585 103.337 160.38 102.208 160.38C101.093 160.38 100.059 160.585 99.1057 160.996C98.1524 161.392 97.3237 161.949 96.6197 162.668C95.9157 163.372 95.3657 164.208 94.9697 165.176C94.5884 166.129 94.3977 167.171 94.3977 168.3ZM111.999 165.88V167.53H117.059V165.88H111.999ZM116.883 160.952L117.851 159.5C117.748 159.353 117.601 159.214 117.411 159.082C117.235 158.95 117.022 158.84 116.773 158.752C116.523 158.664 116.237 158.62 115.915 158.62C115.299 158.62 114.771 158.752 114.331 159.016C113.905 159.265 113.575 159.647 113.341 160.16C113.106 160.673 112.989 161.333 112.989 162.14V176H114.749V162.36C114.749 161.876 114.793 161.487 114.881 161.194C114.969 160.901 115.086 160.695 115.233 160.578C115.394 160.446 115.585 160.38 115.805 160.38C115.981 160.38 116.164 160.417 116.355 160.49C116.56 160.549 116.736 160.703 116.883 160.952ZM127.243 176H135.009V174.24H127.243V176ZM127.243 162.36H135.009V160.6H127.243V162.36ZM127.243 168.52H134.569V166.76H127.243V168.52ZM126.209 160.6V176H128.079V160.6H126.209ZM143.805 165.88L141.385 169.4L138.965 165.88H136.985L140.439 170.786L136.765 176H138.745L141.385 172.172L144.025 176H146.005L142.331 170.786L145.785 165.88H143.805ZM149.523 180.84V165.88H147.763V180.84H149.523ZM157.993 170.94C157.993 169.84 157.766 168.901 157.311 168.124C156.857 167.332 156.248 166.723 155.485 166.298C154.737 165.873 153.901 165.66 152.977 165.66C152.141 165.66 151.401 165.873 150.755 166.298C150.125 166.723 149.626 167.332 149.259 168.124C148.907 168.901 148.731 169.84 148.731 170.94C148.731 172.025 148.907 172.964 149.259 173.756C149.626 174.548 150.125 175.157 150.755 175.582C151.401 176.007 152.141 176.22 152.977 176.22C153.901 176.22 154.737 176.007 155.485 175.582C156.248 175.157 156.857 174.548 157.311 173.756C157.766 172.964 157.993 172.025 157.993 170.94ZM156.211 170.94C156.211 171.717 156.05 172.377 155.727 172.92C155.419 173.463 155.001 173.873 154.473 174.152C153.96 174.431 153.388 174.57 152.757 174.57C152.244 174.57 151.738 174.431 151.239 174.152C150.741 173.873 150.33 173.463 150.007 172.92C149.685 172.377 149.523 171.717 149.523 170.94C149.523 170.163 149.685 169.503 150.007 168.96C150.33 168.417 150.741 168.007 151.239 167.728C151.738 167.449 152.244 167.31 152.757 167.31C153.388 167.31 153.96 167.449 154.473 167.728C155.001 168.007 155.419 168.417 155.727 168.96C156.05 169.503 156.211 170.163 156.211 170.94ZM164.556 176.22C165.641 176.22 166.58 176.007 167.372 175.582C168.179 175.142 168.846 174.497 169.374 173.646L167.944 172.744C167.577 173.36 167.13 173.822 166.602 174.13C166.074 174.423 165.465 174.57 164.776 174.57C164.087 174.57 163.5 174.423 163.016 174.13C162.532 173.837 162.165 173.411 161.916 172.854C161.667 172.297 161.542 171.622 161.542 170.83C161.557 170.053 161.689 169.4 161.938 168.872C162.202 168.329 162.569 167.919 163.038 167.64C163.522 167.347 164.101 167.2 164.776 167.2C165.348 167.2 165.847 167.325 166.272 167.574C166.697 167.823 167.027 168.168 167.262 168.608C167.511 169.048 167.636 169.569 167.636 170.17C167.636 170.273 167.614 170.405 167.57 170.566C167.526 170.713 167.482 170.823 167.438 170.896L168.142 169.884H160.882V171.38H169.528C169.528 171.351 169.528 171.285 169.528 171.182C169.543 171.065 169.55 170.955 169.55 170.852C169.55 169.781 169.359 168.857 168.978 168.08C168.597 167.303 168.047 166.709 167.328 166.298C166.624 165.873 165.773 165.66 164.776 165.66C163.779 165.66 162.899 165.88 162.136 166.32C161.388 166.76 160.801 167.376 160.376 168.168C159.965 168.96 159.76 169.884 159.76 170.94C159.76 171.981 159.958 172.898 160.354 173.69C160.765 174.482 161.329 175.105 162.048 175.56C162.781 176 163.617 176.22 164.556 176.22ZM173.942 165.88H172.182V176H173.942V165.88ZM177 167.816L177.968 166.364C177.704 166.085 177.411 165.902 177.088 165.814C176.78 165.711 176.443 165.66 176.076 165.66C175.607 165.66 175.145 165.843 174.69 166.21C174.236 166.577 173.862 167.075 173.568 167.706C173.29 168.322 173.15 169.033 173.15 169.84H173.942C173.942 169.356 173.986 168.923 174.074 168.542C174.177 168.161 174.353 167.86 174.602 167.64C174.852 167.42 175.196 167.31 175.636 167.31C175.93 167.31 176.172 167.354 176.362 167.442C176.553 167.515 176.766 167.64 177 167.816ZM179.943 161.7C179.943 162.023 180.061 162.309 180.295 162.558C180.545 162.793 180.831 162.91 181.153 162.91C181.491 162.91 181.777 162.793 182.011 162.558C182.246 162.309 182.363 162.023 182.363 161.7C182.363 161.363 182.246 161.077 182.011 160.842C181.777 160.607 181.491 160.49 181.153 160.49C180.831 160.49 180.545 160.607 180.295 160.842C180.061 161.077 179.943 161.363 179.943 161.7ZM180.273 165.88V176H182.033V165.88H180.273ZM186.67 172.876C186.67 172.509 186.758 172.194 186.934 171.93C187.11 171.666 187.374 171.461 187.726 171.314C188.093 171.167 188.562 171.094 189.134 171.094C189.75 171.094 190.33 171.175 190.872 171.336C191.415 171.483 191.943 171.732 192.456 172.084V171.05C192.354 170.918 192.156 170.749 191.862 170.544C191.569 170.324 191.173 170.133 190.674 169.972C190.19 169.796 189.582 169.708 188.848 169.708C187.602 169.708 186.626 170.009 185.922 170.61C185.233 171.197 184.888 171.981 184.888 172.964C184.888 173.653 185.05 174.24 185.372 174.724C185.695 175.208 186.12 175.582 186.648 175.846C187.191 176.095 187.77 176.22 188.386 176.22C188.944 176.22 189.501 176.117 190.058 175.912C190.63 175.707 191.107 175.391 191.488 174.966C191.884 174.541 192.082 174.005 192.082 173.36L191.73 172.04C191.73 172.568 191.598 173.037 191.334 173.448C191.085 173.844 190.74 174.152 190.3 174.372C189.875 174.592 189.391 174.702 188.848 174.702C188.423 174.702 188.042 174.636 187.704 174.504C187.382 174.357 187.125 174.145 186.934 173.866C186.758 173.587 186.67 173.257 186.67 172.876ZM186.406 168.212C186.568 168.095 186.788 167.955 187.066 167.794C187.345 167.633 187.682 167.493 188.078 167.376C188.489 167.259 188.944 167.2 189.442 167.2C189.75 167.2 190.044 167.229 190.322 167.288C190.601 167.347 190.843 167.442 191.048 167.574C191.268 167.706 191.437 167.889 191.554 168.124C191.672 168.344 191.73 168.63 191.73 168.982V176H193.49V168.74C193.49 168.08 193.322 167.523 192.984 167.068C192.662 166.613 192.2 166.269 191.598 166.034C191.012 165.785 190.322 165.66 189.53 165.66C188.592 165.66 187.785 165.799 187.11 166.078C186.45 166.357 185.93 166.635 185.548 166.914L186.406 168.212ZM203.18 169.84V176H204.94V169.62C204.94 168.403 204.625 167.442 203.994 166.738C203.378 166.019 202.535 165.66 201.464 165.66C200.804 165.66 200.217 165.807 199.704 166.1C199.205 166.393 198.787 166.848 198.45 167.464V165.88H196.69V176H198.45V169.84C198.45 169.341 198.553 168.901 198.758 168.52C198.978 168.139 199.279 167.845 199.66 167.64C200.056 167.42 200.511 167.31 201.024 167.31C201.728 167.31 202.263 167.523 202.63 167.948C202.997 168.373 203.18 169.004 203.18 169.84ZM209.261 170.94C209.261 170.236 209.407 169.613 209.701 169.07C210.009 168.513 210.419 168.08 210.933 167.772C211.461 167.464 212.055 167.31 212.715 167.31C213.257 167.31 213.763 167.398 214.233 167.574C214.717 167.735 215.135 167.955 215.487 168.234C215.839 168.513 216.088 168.821 216.235 169.158V166.958C215.883 166.547 215.377 166.232 214.717 166.012C214.071 165.777 213.404 165.66 212.715 165.66C211.732 165.66 210.845 165.887 210.053 166.342C209.261 166.797 208.63 167.42 208.161 168.212C207.706 169.004 207.479 169.913 207.479 170.94C207.479 171.952 207.706 172.861 208.161 173.668C208.63 174.46 209.261 175.083 210.053 175.538C210.845 175.993 211.732 176.22 212.715 176.22C213.404 176.22 214.071 176.11 214.717 175.89C215.377 175.655 215.883 175.333 216.235 174.922V172.722C216.088 173.045 215.839 173.353 215.487 173.646C215.135 173.925 214.717 174.152 214.233 174.328C213.763 174.489 213.257 174.57 212.715 174.57C212.055 174.57 211.461 174.416 210.933 174.108C210.419 173.785 210.009 173.353 209.701 172.81C209.407 172.267 209.261 171.644 209.261 170.94ZM223.11 176.22C224.196 176.22 225.134 176.007 225.926 175.582C226.733 175.142 227.4 174.497 227.928 173.646L226.498 172.744C226.132 173.36 225.684 173.822 225.156 174.13C224.628 174.423 224.02 174.57 223.33 174.57C222.641 174.57 222.054 174.423 221.57 174.13C221.086 173.837 220.72 173.411 220.47 172.854C220.221 172.297 220.096 171.622 220.096 170.83C220.111 170.053 220.243 169.4 220.492 168.872C220.756 168.329 221.123 167.919 221.592 167.64C222.076 167.347 222.656 167.2 223.33 167.2C223.902 167.2 224.401 167.325 224.826 167.574C225.252 167.823 225.582 168.168 225.816 168.608C226.066 169.048 226.19 169.569 226.19 170.17C226.19 170.273 226.168 170.405 226.124 170.566C226.08 170.713 226.036 170.823 225.992 170.896L226.696 169.884H219.436V171.38H228.082C228.082 171.351 228.082 171.285 228.082 171.182C228.097 171.065 228.104 170.955 228.104 170.852C228.104 169.781 227.914 168.857 227.532 168.08C227.151 167.303 226.601 166.709 225.882 166.298C225.178 165.873 224.328 165.66 223.33 165.66C222.333 165.66 221.453 165.88 220.69 166.32C219.942 166.76 219.356 167.376 218.93 168.168C218.52 168.96 218.314 169.884 218.314 170.94C218.314 171.981 218.512 172.898 218.908 173.69C219.319 174.482 219.884 175.105 220.602 175.56C221.336 176 222.172 176.22 223.11 176.22Z" fill="#4D5053"/>
</svg>
