<svg width="288" height="195" viewBox="0 0 288 195" fill="none" xmlns="http://www.w3.org/2000/svg">
<path d="M102.463 109.275C99.1761 109.275 96.2294 108.963 93.6228 108.34C91.0728 107.773 88.8061 106.81 86.8228 105.45L87.4178 94.74H88.2678L92.1778 101.71C93.3111 103.75 94.6994 105.252 96.3428 106.215C97.9861 107.122 99.7994 107.575 101.783 107.575C108.299 107.575 111.558 102.617 111.558 92.7C111.558 88.2233 110.679 84.8233 108.923 82.5C107.223 80.1767 104.673 79.015 101.273 79.015C99.6861 79.015 98.0994 79.2417 96.5128 79.695C94.9828 80.0917 93.5661 80.63 92.2628 81.31L90.7328 80.375L92.6028 54.11H122.353V63.8H94.3028L93.1128 78.505C94.4161 77.5417 96.1728 76.635 98.3828 75.785C100.593 74.935 102.916 74.51 105.353 74.51C109.036 74.51 112.294 75.1617 115.128 76.465C118.018 77.7683 120.256 79.695 121.843 82.245C123.486 84.7383 124.308 87.8267 124.308 91.51C124.308 95.3067 123.344 98.5367 121.418 101.2C119.548 103.863 116.969 105.875 113.683 107.235C110.396 108.595 106.656 109.275 102.463 109.275ZM130.532 108V107.15L132.317 106.47C133.45 106.073 134.187 105.535 134.527 104.855C134.867 104.175 135.037 103.297 135.037 102.22V57.765C135.037 56.6317 134.867 55.725 134.527 55.045C134.187 54.365 133.45 53.8267 132.317 53.43L130.532 52.75V51.9H151.697V52.75L149.827 53.515C148.864 53.855 148.212 54.365 147.872 55.045C147.532 55.725 147.362 56.66 147.362 57.85V102.305C147.362 103.438 147.532 104.317 147.872 104.94C148.269 105.563 149.005 106.073 150.082 106.47L151.697 107.15V108H130.532ZM161.897 108V107.15L163.002 106.81C164.135 106.47 164.73 105.903 164.787 105.11C164.844 104.317 164.504 103.41 163.767 102.39L147.447 79.185L168.952 57.255C169.745 56.4617 170.17 55.6967 170.227 54.96C170.34 54.2233 169.802 53.6567 168.612 53.26L167.167 52.75V51.9H179.577V52.75L177.367 53.43C176.12 53.8267 175.129 54.3083 174.392 54.875C173.655 55.4417 172.805 56.2067 171.842 57.17L156.627 72.725L176.602 101.88C177.452 103.127 178.245 104.147 178.982 104.94C179.775 105.733 180.88 106.357 182.297 106.81L183.487 107.15V108H161.897Z" fill="#CDA274"/>
<path d="M62.416 171.336L60.92 172.348C61.2574 173.023 61.69 173.661 62.218 174.262C62.7607 174.849 63.384 175.325 64.088 175.692C64.8067 176.044 65.584 176.22 66.42 176.22C67.036 176.22 67.6227 176.117 68.18 175.912C68.752 175.707 69.258 175.413 69.698 175.032C70.1527 174.651 70.5047 174.189 70.754 173.646C71.018 173.103 71.15 172.495 71.15 171.82C71.15 171.116 71.0254 170.515 70.776 170.016C70.5267 169.503 70.204 169.07 69.808 168.718C69.4267 168.351 69.0087 168.051 68.554 167.816C68.0994 167.581 67.6667 167.391 67.256 167.244C66.3614 166.936 65.65 166.628 65.122 166.32C64.6087 165.997 64.242 165.66 64.022 165.308C63.802 164.941 63.692 164.545 63.692 164.12C63.692 163.621 63.8827 163.174 64.264 162.778C64.6454 162.367 65.254 162.162 66.09 162.162C66.6914 162.162 67.1974 162.279 67.608 162.514C68.0334 162.749 68.3927 163.049 68.686 163.416C68.9794 163.783 69.2214 164.157 69.412 164.538L71.018 163.614C70.7687 163.071 70.424 162.558 69.984 162.074C69.544 161.575 69.0087 161.172 68.378 160.864C67.762 160.541 67.036 160.38 66.2 160.38C65.3347 160.38 64.5647 160.556 63.89 160.908C63.2154 161.245 62.6874 161.715 62.306 162.316C61.9247 162.917 61.734 163.599 61.734 164.362C61.734 165.066 61.866 165.66 62.13 166.144C62.4087 166.628 62.7607 167.039 63.186 167.376C63.6114 167.699 64.0587 167.97 64.528 168.19C64.9974 168.395 65.4227 168.564 65.804 168.696C66.3907 168.901 66.9407 169.136 67.454 169.4C67.982 169.649 68.4074 169.979 68.73 170.39C69.0527 170.801 69.214 171.351 69.214 172.04C69.214 172.744 68.9647 173.323 68.466 173.778C67.9674 174.233 67.3074 174.46 66.486 174.46C65.87 174.46 65.32 174.328 64.836 174.064C64.352 173.8 63.912 173.433 63.516 172.964C63.1347 172.495 62.768 171.952 62.416 171.336ZM75.7668 172.04V165.88H74.0068V172.26C74.0068 173.463 74.3221 174.423 74.9528 175.142C75.5834 175.861 76.4268 176.22 77.4828 176.22C78.1574 176.22 78.7441 176.073 79.2428 175.78C79.7414 175.472 80.1594 175.017 80.4968 174.416V176H82.2568V165.88H80.4968V172.04C80.4968 172.539 80.3868 172.979 80.1668 173.36C79.9614 173.741 79.6608 174.042 79.2648 174.262C78.8834 174.467 78.4361 174.57 77.9228 174.57C77.2188 174.57 76.6834 174.35 76.3168 173.91C75.9501 173.47 75.7668 172.847 75.7668 172.04ZM86.5774 170.94C86.5774 170.236 86.724 169.613 87.0174 169.07C87.3254 168.513 87.736 168.08 88.2494 167.772C88.7774 167.464 89.3714 167.31 90.0314 167.31C90.574 167.31 91.08 167.398 91.5494 167.574C92.0334 167.735 92.4514 167.955 92.8034 168.234C93.1554 168.513 93.4047 168.821 93.5514 169.158V166.958C93.1994 166.547 92.6934 166.232 92.0334 166.012C91.388 165.777 90.7207 165.66 90.0314 165.66C89.0487 165.66 88.1614 165.887 87.3694 166.342C86.5774 166.797 85.9467 167.42 85.4774 168.212C85.0227 169.004 84.7954 169.913 84.7954 170.94C84.7954 171.952 85.0227 172.861 85.4774 173.668C85.9467 174.46 86.5774 175.083 87.3694 175.538C88.1614 175.993 89.0487 176.22 90.0314 176.22C90.7207 176.22 91.388 176.11 92.0334 175.89C92.6934 175.655 93.1994 175.333 93.5514 174.922V172.722C93.4047 173.045 93.1554 173.353 92.8034 173.646C92.4514 173.925 92.0334 174.152 91.5494 174.328C91.08 174.489 90.574 174.57 90.0314 174.57C89.3714 174.57 88.7774 174.416 88.2494 174.108C87.736 173.785 87.3254 173.353 87.0174 172.81C86.724 172.267 86.5774 171.644 86.5774 170.94ZM97.3032 170.94C97.3032 170.236 97.4499 169.613 97.7432 169.07C98.0512 168.513 98.4619 168.08 98.9752 167.772C99.5032 167.464 100.097 167.31 100.757 167.31C101.3 167.31 101.806 167.398 102.275 167.574C102.759 167.735 103.177 167.955 103.529 168.234C103.881 168.513 104.131 168.821 104.277 169.158V166.958C103.925 166.547 103.419 166.232 102.759 166.012C102.114 165.777 101.447 165.66 100.757 165.66C99.7745 165.66 98.8872 165.887 98.0952 166.342C97.3032 166.797 96.6725 167.42 96.2032 168.212C95.7485 169.004 95.5212 169.913 95.5212 170.94C95.5212 171.952 95.7485 172.861 96.2032 173.668C96.6725 174.46 97.3032 175.083 98.0952 175.538C98.8872 175.993 99.7745 176.22 100.757 176.22C101.447 176.22 102.114 176.11 102.759 175.89C103.419 175.655 103.925 175.333 104.277 174.922V172.722C104.131 173.045 103.881 173.353 103.529 173.646C103.177 173.925 102.759 174.152 102.275 174.328C101.806 174.489 101.3 174.57 100.757 174.57C100.097 174.57 99.5032 174.416 98.9752 174.108C98.4619 173.785 98.0512 173.353 97.7432 172.81C97.4499 172.267 97.3032 171.644 97.3032 170.94ZM111.153 176.22C112.238 176.22 113.177 176.007 113.969 175.582C114.776 175.142 115.443 174.497 115.971 173.646L114.541 172.744C114.174 173.36 113.727 173.822 113.199 174.13C112.671 174.423 112.062 174.57 111.373 174.57C110.684 174.57 110.097 174.423 109.613 174.13C109.129 173.837 108.762 173.411 108.513 172.854C108.264 172.297 108.139 171.622 108.139 170.83C108.154 170.053 108.286 169.4 108.535 168.872C108.799 168.329 109.166 167.919 109.635 167.64C110.119 167.347 110.698 167.2 111.373 167.2C111.945 167.2 112.444 167.325 112.869 167.574C113.294 167.823 113.624 168.168 113.859 168.608C114.108 169.048 114.233 169.569 114.233 170.17C114.233 170.273 114.211 170.405 114.167 170.566C114.123 170.713 114.079 170.823 114.035 170.896L114.739 169.884H107.479V171.38H116.125C116.125 171.351 116.125 171.285 116.125 171.182C116.14 171.065 116.147 170.955 116.147 170.852C116.147 169.781 115.956 168.857 115.575 168.08C115.194 167.303 114.644 166.709 113.925 166.298C113.221 165.873 112.37 165.66 111.373 165.66C110.376 165.66 109.496 165.88 108.733 166.32C107.985 166.76 107.398 167.376 106.973 168.168C106.562 168.96 106.357 169.884 106.357 170.94C106.357 171.981 106.555 172.898 106.951 173.69C107.362 174.482 107.926 175.105 108.645 175.56C109.378 176 110.214 176.22 111.153 176.22ZM119.197 172.898L117.811 173.756C118.002 174.152 118.281 174.541 118.647 174.922C119.029 175.303 119.491 175.619 120.033 175.868C120.576 176.103 121.185 176.22 121.859 176.22C122.901 176.22 123.737 175.927 124.367 175.34C125.013 174.753 125.335 174.02 125.335 173.14C125.335 172.539 125.189 172.047 124.895 171.666C124.617 171.285 124.235 170.962 123.751 170.698C123.267 170.419 122.732 170.163 122.145 169.928C121.793 169.781 121.456 169.627 121.133 169.466C120.811 169.305 120.547 169.121 120.341 168.916C120.136 168.711 120.033 168.476 120.033 168.212C120.033 167.875 120.165 167.625 120.429 167.464C120.693 167.303 121.009 167.222 121.375 167.222C121.903 167.222 122.373 167.347 122.783 167.596C123.209 167.845 123.561 168.161 123.839 168.542L125.247 167.64C125.042 167.259 124.756 166.921 124.389 166.628C124.023 166.335 123.597 166.1 123.113 165.924C122.644 165.748 122.138 165.66 121.595 165.66C121.053 165.66 120.525 165.755 120.011 165.946C119.513 166.137 119.102 166.43 118.779 166.826C118.471 167.222 118.317 167.721 118.317 168.322C118.317 168.909 118.464 169.4 118.757 169.796C119.065 170.177 119.439 170.493 119.879 170.742C120.334 170.977 120.781 171.182 121.221 171.358C121.617 171.505 121.991 171.666 122.343 171.842C122.695 172.003 122.981 172.209 123.201 172.458C123.436 172.693 123.553 172.986 123.553 173.338C123.553 173.734 123.407 174.049 123.113 174.284C122.835 174.504 122.446 174.614 121.947 174.614C121.537 174.614 121.155 174.541 120.803 174.394C120.466 174.233 120.165 174.02 119.901 173.756C119.637 173.492 119.403 173.206 119.197 172.898ZM128.29 172.898L126.904 173.756C127.095 174.152 127.374 174.541 127.74 174.922C128.122 175.303 128.584 175.619 129.126 175.868C129.669 176.103 130.278 176.22 130.952 176.22C131.994 176.22 132.83 175.927 133.46 175.34C134.106 174.753 134.428 174.02 134.428 173.14C134.428 172.539 134.282 172.047 133.988 171.666C133.71 171.285 133.328 170.962 132.844 170.698C132.36 170.419 131.825 170.163 131.238 169.928C130.886 169.781 130.549 169.627 130.226 169.466C129.904 169.305 129.64 169.121 129.434 168.916C129.229 168.711 129.126 168.476 129.126 168.212C129.126 167.875 129.258 167.625 129.522 167.464C129.786 167.303 130.102 167.222 130.468 167.222C130.996 167.222 131.466 167.347 131.876 167.596C132.302 167.845 132.654 168.161 132.932 168.542L134.34 167.64C134.135 167.259 133.849 166.921 133.482 166.628C133.116 166.335 132.69 166.1 132.206 165.924C131.737 165.748 131.231 165.66 130.688 165.66C130.146 165.66 129.618 165.755 129.104 165.946C128.606 166.137 128.195 166.43 127.872 166.826C127.564 167.222 127.41 167.721 127.41 168.322C127.41 168.909 127.557 169.4 127.85 169.796C128.158 170.177 128.532 170.493 128.972 170.742C129.427 170.977 129.874 171.182 130.314 171.358C130.71 171.505 131.084 171.666 131.436 171.842C131.788 172.003 132.074 172.209 132.294 172.458C132.529 172.693 132.646 172.986 132.646 173.338C132.646 173.734 132.5 174.049 132.206 174.284C131.928 174.504 131.539 174.614 131.04 174.614C130.63 174.614 130.248 174.541 129.896 174.394C129.559 174.233 129.258 174.02 128.994 173.756C128.73 173.492 128.496 173.206 128.29 172.898ZM143.891 160.6V176H145.761V160.6H143.891ZM144.925 162.36H148.071C149.068 162.36 149.875 162.602 150.491 163.086C151.122 163.555 151.437 164.267 151.437 165.22C151.437 166.159 151.122 166.87 150.491 167.354C149.875 167.838 149.068 168.08 148.071 168.08H144.925V169.84H148.071C149.068 169.84 149.956 169.657 150.733 169.29C151.525 168.909 152.148 168.373 152.603 167.684C153.072 166.98 153.307 166.159 153.307 165.22C153.307 164.267 153.072 163.445 152.603 162.756C152.148 162.067 151.525 161.539 150.733 161.172C149.956 160.791 149.068 160.6 148.071 160.6H144.925V162.36ZM157.384 165.88H155.624V176H157.384V165.88ZM160.442 167.816L161.41 166.364C161.146 166.085 160.853 165.902 160.53 165.814C160.222 165.711 159.885 165.66 159.518 165.66C159.049 165.66 158.587 165.843 158.132 166.21C157.678 166.577 157.304 167.075 157.01 167.706C156.732 168.322 156.592 169.033 156.592 169.84H157.384C157.384 169.356 157.428 168.923 157.516 168.542C157.619 168.161 157.795 167.86 158.044 167.64C158.294 167.42 158.638 167.31 159.078 167.31C159.372 167.31 159.614 167.354 159.804 167.442C159.995 167.515 160.208 167.64 160.442 167.816ZM162.183 170.94C162.183 171.952 162.41 172.861 162.865 173.668C163.334 174.46 163.965 175.083 164.757 175.538C165.549 175.993 166.436 176.22 167.419 176.22C168.416 176.22 169.304 175.993 170.081 175.538C170.873 175.083 171.496 174.46 171.951 173.668C172.42 172.861 172.655 171.952 172.655 170.94C172.655 169.913 172.42 169.004 171.951 168.212C171.496 167.42 170.873 166.797 170.081 166.342C169.304 165.887 168.416 165.66 167.419 165.66C166.436 165.66 165.549 165.887 164.757 166.342C163.965 166.797 163.334 167.42 162.865 168.212C162.41 169.004 162.183 169.913 162.183 170.94ZM163.965 170.94C163.965 170.236 164.112 169.613 164.405 169.07C164.713 168.513 165.124 168.08 165.637 167.772C166.165 167.464 166.759 167.31 167.419 167.31C168.079 167.31 168.666 167.464 169.179 167.772C169.707 168.08 170.118 168.513 170.411 169.07C170.719 169.613 170.873 170.236 170.873 170.94C170.873 171.644 170.719 172.267 170.411 172.81C170.118 173.353 169.707 173.785 169.179 174.108C168.666 174.416 168.079 174.57 167.419 174.57C166.759 174.57 166.165 174.416 165.637 174.108C165.124 173.785 164.713 173.353 164.405 172.81C164.112 172.267 163.965 171.644 163.965 170.94ZM175.007 161.7C175.007 162.023 175.124 162.301 175.359 162.536C175.593 162.771 175.872 162.888 176.195 162.888C176.532 162.888 176.811 162.771 177.031 162.536C177.265 162.301 177.383 162.023 177.383 161.7C177.383 161.363 177.265 161.084 177.031 160.864C176.811 160.629 176.532 160.512 176.195 160.512C175.872 160.512 175.593 160.629 175.359 160.864C175.124 161.084 175.007 161.363 175.007 161.7ZM173.269 178.508L172.301 179.96C172.447 180.151 172.616 180.312 172.807 180.444C172.997 180.576 173.21 180.671 173.445 180.73C173.679 180.803 173.943 180.84 174.237 180.84C174.853 180.84 175.381 180.701 175.821 180.422C176.261 180.143 176.591 179.74 176.811 179.212C177.045 178.684 177.163 178.053 177.163 177.32V165.88H175.403V177.1C175.403 177.569 175.366 177.951 175.293 178.244C175.219 178.537 175.102 178.75 174.941 178.882C174.794 179.014 174.596 179.08 174.347 179.08C174.112 179.08 173.899 179.029 173.709 178.926C173.533 178.823 173.386 178.684 173.269 178.508ZM184.929 176.22C186.014 176.22 186.953 176.007 187.745 175.582C188.551 175.142 189.219 174.497 189.747 173.646L188.317 172.744C187.95 173.36 187.503 173.822 186.975 174.13C186.447 174.423 185.838 174.57 185.149 174.57C184.459 174.57 183.873 174.423 183.389 174.13C182.905 173.837 182.538 173.411 182.289 172.854C182.039 172.297 181.915 171.622 181.915 170.83C181.929 170.053 182.061 169.4 182.311 168.872C182.575 168.329 182.941 167.919 183.411 167.64C183.895 167.347 184.474 167.2 185.149 167.2C185.721 167.2 186.219 167.325 186.645 167.574C187.07 167.823 187.4 168.168 187.635 168.608C187.884 169.048 188.009 169.569 188.009 170.17C188.009 170.273 187.987 170.405 187.943 170.566C187.899 170.713 187.855 170.823 187.811 170.896L188.515 169.884H181.255V171.38H189.901C189.901 171.351 189.901 171.285 189.901 171.182C189.915 171.065 189.923 170.955 189.923 170.852C189.923 169.781 189.732 168.857 189.351 168.08C188.969 167.303 188.419 166.709 187.701 166.298C186.997 165.873 186.146 165.66 185.149 165.66C184.151 165.66 183.271 165.88 182.509 166.32C181.761 166.76 181.174 167.376 180.749 168.168C180.338 168.96 180.133 169.884 180.133 170.94C180.133 171.981 180.331 172.898 180.727 173.69C181.137 174.482 181.702 175.105 182.421 175.56C183.154 176 183.99 176.22 184.929 176.22ZM193.347 170.94C193.347 170.236 193.494 169.613 193.787 169.07C194.095 168.513 194.506 168.08 195.019 167.772C195.547 167.464 196.141 167.31 196.801 167.31C197.344 167.31 197.85 167.398 198.319 167.574C198.803 167.735 199.221 167.955 199.573 168.234C199.925 168.513 200.174 168.821 200.321 169.158V166.958C199.969 166.547 199.463 166.232 198.803 166.012C198.158 165.777 197.49 165.66 196.801 165.66C195.818 165.66 194.931 165.887 194.139 166.342C193.347 166.797 192.716 167.42 192.247 168.212C191.792 169.004 191.565 169.913 191.565 170.94C191.565 171.952 191.792 172.861 192.247 173.668C192.716 174.46 193.347 175.083 194.139 175.538C194.931 175.993 195.818 176.22 196.801 176.22C197.49 176.22 198.158 176.11 198.803 175.89C199.463 175.655 199.969 175.333 200.321 174.922V172.722C200.174 173.045 199.925 173.353 199.573 173.646C199.221 173.925 198.803 174.152 198.319 174.328C197.85 174.489 197.344 174.57 196.801 174.57C196.141 174.57 195.547 174.416 195.019 174.108C194.506 173.785 194.095 173.353 193.787 172.81C193.494 172.267 193.347 171.644 193.347 170.94ZM201.741 165.88V167.53H206.801V165.88H201.741ZM203.391 162.36V176H205.151V162.36H203.391Z" fill="#4D5053"/>
</svg>
